<svg width="185" height="35" viewBox="0 0 185 35" fill="none" xmlns="http://www.w3.org/2000/svg">
<path d="M88.8382 -1.15558V29.7324H81.3142V17.0164H69.6102V29.7324H62.0862V-1.15558H69.6102V10.9444H81.3142V-1.15558H88.8382ZM108.446 30.0844C106.04 30.0844 103.87 29.5711 101.934 28.5444C100.027 27.5178 98.5164 26.0511 97.4017 24.1444C96.3164 22.2378 95.7737 20.0084 95.7737 17.4564C95.7737 14.9338 96.3311 12.7191 97.4457 10.8124C98.5604 8.87642 100.086 7.39509 102.022 6.36842C103.958 5.34175 106.128 4.82842 108.534 4.82842C110.939 4.82842 113.11 5.34175 115.046 6.36842C116.982 7.39509 118.507 8.87642 119.622 10.8124C120.736 12.7191 121.294 14.9338 121.294 17.4564C121.294 19.9791 120.722 22.2084 119.578 24.1444C118.463 26.0511 116.923 27.5178 114.958 28.5444C113.022 29.5711 110.851 30.0844 108.446 30.0844ZM108.446 23.5724C109.883 23.5724 111.1 23.0444 112.098 21.9884C113.124 20.9324 113.638 19.4218 113.638 17.4564C113.638 15.4911 113.139 13.9804 112.142 12.9244C111.174 11.8684 109.971 11.3404 108.534 11.3404C107.067 11.3404 105.85 11.8684 104.882 12.9244C103.914 13.9511 103.43 15.4618 103.43 17.4564C103.43 19.4218 103.899 20.9324 104.838 21.9884C105.806 23.0444 107.008 23.5724 108.446 23.5724ZM135.809 -2.82758V29.7324H128.285V-2.82758H135.809ZM151.786 -2.82758V29.7324H144.262V-2.82758H151.786ZM167.762 9.27242C168.642 7.92309 169.742 6.86709 171.062 6.10442C172.382 5.31242 173.849 4.91642 175.462 4.91642V12.8804H173.394C171.517 12.8804 170.109 13.2911 169.17 14.1124C168.232 14.9044 167.762 16.3124 167.762 18.3364V29.7324H160.238V5.18042H167.762V9.27242Z" fill="white"/>
<g clip-path="url(#clip0)">
<path d="M28.5183 0.208013C20.668 0.204548 12.4767 1.78643 4.20985 3.83785C3.16076 4.02584 2.13588 4.64092 1.59438 5.40068C1.0955 6.11538 0.916292 6.83529 0.759364 7.58898C-0.0446527 11.613 0.0541541 15.5651 0.221738 19.9443C0.25758 20.9457 0.425164 22.1343 0.948259 22.856C1.4946 23.5863 2.43133 24.0489 3.55017 24.2013C4.98771 24.3963 6.41944 24.5427 7.85117 24.6778L7.53441 32.5838C7.51391 32.8599 7.5688 33.1363 7.69435 33.3893C7.8199 33.6422 8.01236 33.8641 8.25512 34.0357C8.63776 34.2956 9.06398 34.4117 9.50086 34.4403C10.3746 34.4992 11.3995 34.1648 11.91 33.2985C14.139 29.459 15.5397 27.7645 18.3286 25.2141C25.6035 25.3735 31.9533 25.0122 39.1439 24.5366C41.6857 24.4777 43.4294 22.6186 43.8905 21.1355C45.2709 17.2891 45.485 12.5417 45.6312 7.74231C45.6932 5.83903 44.9551 3.97213 43.6483 2.9854C42.4074 2.08444 40.903 1.75698 39.5255 1.42345C35.6973 0.648099 31.868 0.231404 28.5183 0.208013ZM38.9763 3.21671C40.3557 3.5511 41.5724 3.8751 42.3386 4.43128C43.6202 5.64844 43.5776 6.45844 43.5592 7.77177C43.4149 12.4265 43.1649 16.9443 41.9899 20.3679C41.4833 21.6449 40.6018 22.5536 38.9346 22.6914C31.6103 23.1765 25.2547 23.549 17.8917 23.3628C17.7484 23.3587 17.6057 23.381 17.4724 23.4283C17.3391 23.4755 17.2181 23.5467 17.1167 23.6374C14.0227 26.4304 12.4399 28.3726 10.083 32.4304C10.0278 32.524 9.90868 32.5794 9.76338 32.5898C9.66457 32.5846 9.62485 32.5171 9.61807 32.4555L9.93774 23.8834C9.95712 23.4208 9.52992 22.979 9.01555 22.9287C7.30096 22.7797 5.59121 22.5969 3.87372 22.3656C3.13557 22.2643 2.86337 22.0841 2.66091 21.8155C2.30927 21.0653 2.31799 20.6018 2.2899 19.8802C2.12522 15.5408 2.04482 11.7481 2.78975 7.97535C2.85852 7.41658 3.09198 6.84568 3.33997 6.36921C3.75069 5.79485 4.38034 5.71082 5.01096 5.55401C13.0957 3.55803 21.006 2.06365 28.4534 2.05932C32.1034 2.178 35.9375 2.50547 38.9763 3.21671V3.21671ZM11.0498 10.5691C9.93581 11.7637 10.0472 13.3829 10.9074 14.4692C11.3569 15.0366 12.0582 15.4941 12.9126 15.5971C14.0208 15.6786 14.7241 15.2775 15.4825 14.8166C16.8581 13.7467 16.9976 11.8824 15.9514 10.5353C15.4186 9.84918 14.5681 9.43682 13.6982 9.40909C12.5067 9.41949 11.6979 9.89423 11.0498 10.5691V10.5691ZM23.0984 9.59535C21.9893 9.6274 21.0923 10.3144 20.544 11.0559C19.9172 11.9041 19.5511 12.9653 20.0587 14.0066C21.0341 16.0078 24.4042 15.9835 25.7497 13.9486C26.3697 13.0112 26.2108 11.9457 25.7497 11.172C25.2896 10.3984 24.5951 9.76861 23.5837 9.62481C23.4234 9.6011 23.2609 9.59123 23.0984 9.59535V9.59535ZM32.8803 9.78334C32.5318 9.77354 32.1836 9.80767 31.8457 9.8847C30.5118 10.2026 29.3775 11.4337 29.5499 13.0086C29.6371 13.8004 30.044 14.5732 30.7782 15.1051C31.5135 15.6379 32.58 15.8761 33.7047 15.6699C34.9979 15.4325 35.798 14.5013 36.0654 13.6012C36.3327 12.7019 36.2659 11.7854 35.645 11.0421C34.9582 10.2191 33.9187 9.805 32.8803 9.78334V9.78334ZM13.6072 11.2587C13.8561 11.2604 14.0528 11.3314 14.2542 11.5913C14.7066 12.1752 14.5807 13.0589 14.1244 13.4132C13.6692 13.7675 13.3863 13.7996 13.1867 13.7753C12.9882 13.751 12.7867 13.628 12.6055 13.3993C12.2597 12.9636 12.158 12.2575 12.6123 11.7533C12.8545 11.4666 13.2981 11.2873 13.6072 11.2587V11.2587ZM23.2437 11.4614C23.2825 11.4666 23.7155 11.6918 23.9228 12.0392C24.1301 12.3875 24.1688 12.7106 23.9712 13.0086C23.3852 13.8948 22.1384 13.6557 21.9505 13.2685C21.8788 13.1221 21.9321 12.5304 22.2741 12.0687C22.615 11.6069 23.0442 11.4328 23.2437 11.4614V11.4614ZM33.9798 12.1406C34.0427 12.2159 34.1968 12.7219 34.0766 13.1247C33.9575 13.5267 33.7628 13.7744 33.2842 13.8611C32.672 13.9737 32.3301 13.8611 32.0724 13.6739C31.8138 13.4868 31.6404 13.1715 31.6036 12.8354C31.5115 11.9994 31.8477 11.8044 32.3785 11.678C33.0004 11.5419 33.6998 11.7793 33.9798 12.1406Z" fill="white"/>
</g>
<defs>
<clipPath id="clip0">
<rect width="46.4973" height="34.6524" fill="white"/>
</clipPath>
</defs>
</svg>
