<svg width="187" height="45" viewBox="0 0 187 45" fill="none" xmlns="http://www.w3.org/2000/svg">
<path d="M92.16 2.304V36H83.952V22.128H71.184V36H62.976V2.304H71.184V15.504H83.952V2.304H92.16ZM113.277 36.384C110.653 36.384 108.285 35.824 106.173 34.704C104.093 33.584 102.445 31.984 101.229 29.904C100.045 27.824 99.4534 25.392 99.4534 22.608C99.4534 19.856 100.061 17.44 101.277 15.36C102.493 13.248 104.157 11.632 106.269 10.512C108.381 9.392 110.749 8.832 113.373 8.832C115.997 8.832 118.365 9.392 120.477 10.512C122.589 11.632 124.253 13.248 125.469 15.36C126.685 17.44 127.293 19.856 127.293 22.608C127.293 25.36 126.669 27.792 125.421 29.904C124.205 31.984 122.525 33.584 120.381 34.704C118.269 35.824 115.901 36.384 113.277 36.384ZM113.277 29.28C114.845 29.28 116.173 28.704 117.261 27.552C118.381 26.4 118.941 24.752 118.941 22.608C118.941 20.464 118.397 18.816 117.309 17.664C116.253 16.512 114.941 15.936 113.373 15.936C111.773 15.936 110.445 16.512 109.389 17.664C108.333 18.784 107.805 20.432 107.805 22.608C107.805 24.752 108.317 26.4 109.341 27.552C110.397 28.704 111.709 29.28 113.277 29.28ZM142.856 0.48V36H134.648V0.48H142.856ZM160.012 0.48V36H151.804V0.48H160.012ZM177.168 13.68C178.128 12.208 179.328 11.056 180.768 10.224C182.208 9.36 183.808 8.928 185.568 8.928V17.616H183.312C181.264 17.616 179.728 18.064 178.704 18.96C177.68 19.824 177.168 21.36 177.168 23.568V36H168.96V9.216H177.168V13.68Z" fill="white"/>
<path d="M28.8267 5.24024C20.8915 5.23624 12.6117 7.06224 4.25546 9.43024C3.19502 9.64724 2.15906 10.3572 1.61171 11.2342C1.10744 12.0592 0.926293 12.8902 0.767668 13.7602C-0.0450399 18.4052 0.0548351 22.9672 0.224231 28.0222C0.26046 29.1782 0.429856 30.5502 0.958606 31.3832C1.51086 32.2262 2.45771 32.7602 3.58865 32.9362C5.04173 33.1612 6.48894 33.3302 7.93615 33.4862L7.61596 42.6122C7.59523 42.931 7.65071 43.2501 7.77763 43.5421C7.90454 43.8341 8.09907 44.0901 8.34446 44.2882C8.73123 44.5882 9.16206 44.7222 9.60367 44.7552C10.4869 44.8232 11.5228 44.4372 12.0389 43.4372C14.2919 39.0052 15.7078 37.0492 18.5268 34.1052C25.8804 34.2892 32.2988 33.8722 39.5671 33.3232C42.1365 33.2552 43.899 31.1092 44.3651 29.3972C45.7604 24.9572 45.9768 19.4772 46.1246 13.9372C46.1873 11.7402 45.4412 9.58524 44.1203 8.44624C42.866 7.40624 41.3453 7.02824 39.9529 6.64324C36.0833 5.74824 32.2126 5.26724 28.8267 5.24024ZM39.3977 8.71324C40.7921 9.09924 42.0219 9.47324 42.7964 10.1152C44.0919 11.5202 44.0488 12.4552 44.0302 13.9712C43.8843 19.3442 43.6317 24.5592 42.4439 28.5112C41.9318 29.9852 41.0408 31.0342 39.3556 31.1932C31.9522 31.7532 25.5279 32.1832 18.0852 31.9682C17.9404 31.9636 17.7961 31.9894 17.6614 32.0439C17.5267 32.0984 17.4043 32.1805 17.3019 32.2852C14.1744 35.5092 12.5745 37.7512 10.1921 42.4352C10.1363 42.5432 10.0159 42.6072 9.86902 42.6192C9.76915 42.6132 9.729 42.5352 9.72215 42.4642L10.0453 32.5692C10.0649 32.0352 9.63304 31.5252 9.11311 31.4672C7.37998 31.2952 5.65175 31.0842 3.91569 30.8172C3.16956 30.7002 2.89442 30.4922 2.68977 30.1822C2.33433 29.3162 2.34315 28.7812 2.31475 27.9482C2.14829 22.9392 2.06702 18.5612 2.82 14.2062C2.88952 13.5612 3.1255 12.9022 3.37617 12.3522C3.79133 11.6892 4.42779 11.5922 5.06523 11.4112C13.2374 9.10724 21.2332 7.38224 28.7611 7.37724C32.4506 7.51424 36.3261 7.89224 39.3977 8.71324V8.71324ZM11.1694 17.2002C10.0433 18.5792 10.1559 20.4482 11.0254 21.7022C11.4798 22.3572 12.1887 22.8852 13.0523 23.0042C14.1725 23.0982 14.8833 22.6352 15.65 22.1032C17.0404 20.8682 17.1814 18.7162 16.1239 17.1612C15.5854 16.3692 14.7257 15.8932 13.8464 15.8612C12.642 15.8732 11.8244 16.4212 11.1694 17.2002V17.2002ZM23.3482 16.0762C22.2271 16.1132 21.3204 16.9062 20.7662 17.7622C20.1326 18.7412 19.7625 19.9662 20.2756 21.1682C21.2616 23.4782 24.6681 23.4502 26.0282 21.1012C26.6549 20.0192 26.4943 18.7892 26.0282 17.8962C25.5631 17.0032 24.861 16.2762 23.8388 16.1102C23.6767 16.0829 23.5124 16.0715 23.3482 16.0762V16.0762ZM33.2359 16.2932C32.8836 16.2819 32.5316 16.3213 32.1901 16.4102C30.8418 16.7772 29.6952 18.1982 29.8695 20.0162C29.9576 20.9302 30.3689 21.8222 31.1111 22.4362C31.8543 23.0512 32.9323 23.3262 34.0691 23.0882C35.3763 22.8142 36.1851 21.7392 36.4554 20.7002C36.7256 19.6622 36.658 18.6042 36.0304 17.7462C35.3362 16.7962 34.2855 16.3182 33.2359 16.2932V16.2932ZM13.7544 17.9962C14.006 17.9982 14.2048 18.0802 14.4084 18.3802C14.8657 19.0542 14.7384 20.0742 14.2772 20.4832C13.817 20.8922 13.5311 20.9292 13.3294 20.9012C13.1287 20.8732 12.925 20.7312 12.7419 20.4672C12.3923 19.9642 12.2895 19.1492 12.7488 18.5672C12.9935 18.2362 13.442 18.0292 13.7544 17.9962V17.9962ZM23.4951 18.2302C23.5343 18.2362 23.972 18.4962 24.1815 18.8972C24.391 19.2992 24.4302 19.6722 24.2305 20.0162C23.6381 21.0392 22.3779 20.7632 22.1879 20.3162C22.1155 20.1472 22.1693 19.4642 22.515 18.9312C22.8596 18.3982 23.2934 18.1972 23.4951 18.2302V18.2302ZM34.3472 19.0142C34.4109 19.1012 34.5665 19.6852 34.4451 20.1502C34.3247 20.6142 34.1279 20.9002 33.6442 21.0002C33.0253 21.1302 32.6797 21.0002 32.4192 20.7842C32.1578 20.5682 31.9825 20.2042 31.9453 19.8162C31.8523 18.8512 32.1921 18.6262 32.7286 18.4802C33.3573 18.3232 34.0642 18.5972 34.3472 19.0142Z" fill="white"/>
</svg>
