<svg width="187" height="45" viewBox="0 0 187 45" fill="none" xmlns="http://www.w3.org/2000/svg">
<path d="M92.16 2.304V36H83.952V22.128H71.184V36H62.976V2.304H71.184V15.504H83.952V2.304H92.16ZM113.277 36.384C110.653 36.384 108.285 35.824 106.173 34.704C104.093 33.584 102.445 31.984 101.229 29.904C100.045 27.824 99.4534 25.392 99.4534 22.608C99.4534 19.856 100.061 17.44 101.277 15.36C102.493 13.248 104.157 11.632 106.269 10.512C108.381 9.392 110.749 8.832 113.373 8.832C115.997 8.832 118.365 9.392 120.477 10.512C122.589 11.632 124.253 13.248 125.469 15.36C126.685 17.44 127.293 19.856 127.293 22.608C127.293 25.36 126.669 27.792 125.421 29.904C124.205 31.984 122.525 33.584 120.381 34.704C118.269 35.824 115.901 36.384 113.277 36.384ZM113.277 29.28C114.845 29.28 116.173 28.704 117.261 27.552C118.381 26.4 118.941 24.752 118.941 22.608C118.941 20.464 118.397 18.816 117.309 17.664C116.253 16.512 114.941 15.936 113.373 15.936C111.773 15.936 110.445 16.512 109.389 17.664C108.333 18.784 107.805 20.432 107.805 22.608C107.805 24.752 108.317 26.4 109.341 27.552C110.397 28.704 111.709 29.28 113.277 29.28ZM142.856 0.48V36H134.648V0.48H142.856ZM160.012 0.48V36H151.804V0.48H160.012ZM177.168 13.68C178.128 12.208 179.328 11.056 180.768 10.224C182.208 9.36 183.808 8.928 185.568 8.928V17.616H183.312C181.264 17.616 179.728 18.064 178.704 18.96C177.68 19.824 177.168 21.36 177.168 23.568V36H168.96V9.216H177.168V13.68Z" fill="black"/>
<path d="M28.8267 5.24C20.8915 5.236 12.6117 7.062 4.25545 9.43C3.19501 9.647 2.15906 10.357 1.6117 11.234C1.10743 12.059 0.926286 12.89 0.767661 13.76C-0.0450476 18.405 0.0548274 22.967 0.224223 28.022C0.260452 29.178 0.429848 30.55 0.958598 31.383C1.51085 32.226 2.4577 32.76 3.58864 32.936C5.04172 33.161 6.48893 33.33 7.93614 33.486L7.61595 42.612C7.59522 42.9307 7.65071 43.2499 7.77762 43.5418C7.90453 43.8338 8.09907 44.0899 8.34445 44.288C8.73122 44.588 9.16206 44.722 9.60366 44.755C10.4869 44.823 11.5228 44.437 12.0388 43.437C14.2919 39.005 15.7078 37.049 18.5268 34.105C25.8803 34.289 32.2988 33.872 39.5671 33.323C42.1365 33.255 43.899 31.109 44.3651 29.397C45.7604 24.957 45.9768 19.477 46.1246 13.937C46.1873 11.74 45.4412 9.585 44.1203 8.446C42.8659 7.406 41.3453 7.028 39.9529 6.643C36.0833 5.748 32.2126 5.267 28.8267 5.24ZM39.3977 8.713C40.7921 9.099 42.0219 9.473 42.7964 10.115C44.0919 11.52 44.0488 12.455 44.0302 13.971C43.8843 19.344 43.6317 24.559 42.4439 28.511C41.9318 29.985 41.0408 31.034 39.3556 31.193C31.9522 31.753 25.5278 32.183 18.0852 31.968C17.9404 31.9634 17.7961 31.9891 17.6614 32.0436C17.5267 32.0982 17.4043 32.1803 17.3019 32.285C14.1744 35.509 12.5745 37.751 10.1921 42.435C10.1363 42.543 10.0159 42.607 9.86902 42.619C9.76914 42.613 9.72899 42.535 9.72214 42.464L10.0453 32.569C10.0648 32.035 9.63304 31.525 9.1131 31.467C7.37997 31.295 5.65174 31.084 3.91568 30.817C3.16956 30.7 2.89441 30.492 2.68976 30.182C2.33433 29.316 2.34314 28.781 2.31474 27.948C2.14829 22.939 2.06701 18.561 2.81999 14.206C2.88951 13.561 3.12549 12.902 3.37616 12.352C3.79133 11.689 4.42779 11.592 5.06522 11.411C13.2373 9.107 21.2332 7.382 28.7611 7.377C32.4506 7.514 36.3261 7.892 39.3977 8.713V8.713ZM11.1693 17.2C10.0433 18.579 10.1559 20.448 11.0254 21.702C11.4797 22.357 12.1887 22.885 13.0523 23.004C14.1725 23.098 14.8833 22.635 15.65 22.103C17.0404 20.868 17.1814 18.716 16.1239 17.161C15.5854 16.369 14.7257 15.893 13.8464 15.861C12.642 15.873 11.8244 16.421 11.1693 17.2V17.2ZM23.3482 16.076C22.2271 16.113 21.3204 16.906 20.7662 17.762C20.1326 18.741 19.7625 19.966 20.2756 21.168C21.2616 23.478 24.6681 23.45 26.0282 21.101C26.6549 20.019 26.4943 18.789 26.0282 17.896C25.5631 17.003 24.861 16.276 23.8388 16.11C23.6767 16.0826 23.5124 16.0712 23.3482 16.076V16.076ZM33.2358 16.293C32.8836 16.2817 32.5316 16.3211 32.1901 16.41C30.8418 16.777 29.6952 18.198 29.8695 20.016C29.9576 20.93 30.3688 21.822 31.1111 22.436C31.8542 23.051 32.9323 23.326 34.0691 23.088C35.3763 22.814 36.1851 21.739 36.4553 20.7C36.7256 19.662 36.658 18.604 36.0304 17.746C35.3362 16.796 34.2855 16.318 33.2358 16.293V16.293ZM13.7543 17.996C14.006 17.998 14.2048 18.08 14.4084 18.38C14.8657 19.054 14.7384 20.074 14.2772 20.483C13.817 20.892 13.5311 20.929 13.3294 20.901C13.1287 20.873 12.925 20.731 12.7419 20.467C12.3923 19.964 12.2895 19.149 12.7487 18.567C12.9935 18.236 13.442 18.029 13.7543 17.996V17.996ZM23.4951 18.23C23.5343 18.236 23.9719 18.496 24.1815 18.897C24.391 19.299 24.4302 19.672 24.2305 20.016C23.6381 21.039 22.3779 20.763 22.1879 20.316C22.1155 20.147 22.1693 19.464 22.515 18.931C22.8596 18.398 23.2934 18.197 23.4951 18.23V18.23ZM34.3472 19.014C34.4108 19.101 34.5665 19.685 34.4451 20.15C34.3247 20.614 34.1279 20.9 33.6442 21C33.0253 21.13 32.6797 21 32.4192 20.784C32.1578 20.568 31.9825 20.204 31.9453 19.816C31.8523 18.851 32.1921 18.626 32.7286 18.48C33.3573 18.323 34.0642 18.597 34.3472 19.014Z" fill="#FF52C1"/>
</svg>
