<svg width="138" height="25" viewBox="0 0 138 25" fill="none" xmlns="http://www.w3.org/2000/svg">
<path d="M63.74 4.556V20H59.978V13.642H54.126V20H50.364V4.556H54.126V10.606H59.978V4.556H63.74ZM75.0438 20.176C73.8411 20.176 72.7558 19.9193 71.7878 19.406C70.8345 18.8927 70.0791 18.1593 69.5218 17.206C68.9791 16.2527 68.7078 15.138 68.7078 13.862C68.7078 12.6007 68.9865 11.4933 69.5438 10.54C70.1011 9.572 70.8638 8.83133 71.8318 8.318C72.7998 7.80467 73.8851 7.548 75.0878 7.548C76.2905 7.548 77.3758 7.80467 78.3438 8.318C79.3118 8.83133 80.0745 9.572 80.6318 10.54C81.1891 11.4933 81.4678 12.6007 81.4678 13.862C81.4678 15.1233 81.1818 16.238 80.6098 17.206C80.0525 18.1593 79.2825 18.8927 78.2998 19.406C77.3318 19.9193 76.2465 20.176 75.0438 20.176ZM75.0438 16.92C75.7625 16.92 76.3711 16.656 76.8698 16.128C77.3831 15.6 77.6398 14.8447 77.6398 13.862C77.6398 12.8793 77.3905 12.124 76.8918 11.596C76.4078 11.068 75.8065 10.804 75.0878 10.804C74.3545 10.804 73.7458 11.068 73.2618 11.596C72.7778 12.1093 72.5358 12.8647 72.5358 13.862C72.5358 14.8447 72.7705 15.6 73.2398 16.128C73.7238 16.656 74.3251 16.92 75.0438 16.92ZM90.2256 3.72V20H86.4636V3.72H90.2256ZM99.7139 3.72V20H95.9519V3.72H99.7139ZM109.202 9.77C109.642 9.09533 110.192 8.56733 110.852 8.186C111.512 7.79 112.246 7.592 113.052 7.592V11.574H112.018C111.08 11.574 110.376 11.7793 109.906 12.19C109.437 12.586 109.202 13.29 109.202 14.302V20H105.44V7.724H109.202V9.77Z" fill="black"/>
<path d="M32.2762 4C28.0553 3.9979 23.6512 4.95655 19.2064 6.19975C18.6423 6.31368 18.0913 6.68643 17.8001 7.14685C17.5319 7.57998 17.4356 8.01625 17.3512 8.473C16.9189 10.9116 16.972 13.3067 17.0621 15.9606C17.0814 16.5675 17.1715 17.2878 17.4527 17.7251C17.7465 18.1677 18.2501 18.448 18.8517 18.5404C19.6246 18.6585 20.3944 18.7473 21.1642 18.8292L20.9939 23.6203C20.9829 23.7876 21.0124 23.9552 21.0799 24.1085C21.1474 24.2618 21.2509 24.3962 21.3814 24.5002C21.5871 24.6577 21.8163 24.7281 22.0512 24.7454C22.521 24.7811 23.072 24.5784 23.3465 24.0534C24.5449 21.7266 25.2981 20.6997 26.7975 19.1541C30.709 19.2507 34.1231 19.0318 37.9892 18.7436C39.3559 18.7079 40.2934 17.5812 40.5413 16.6824C41.2835 14.3514 41.3986 11.4744 41.4772 8.56593C41.5106 7.4125 41.1137 6.28113 40.4111 5.68315C39.7439 5.13715 38.935 4.9387 38.1944 4.73658C36.1361 4.2667 34.0772 4.01418 32.2762 4ZM37.8991 5.82333C38.6408 6.02598 39.2949 6.22233 39.7069 6.55938C40.396 7.297 40.3731 7.78788 40.3632 8.58378C40.2856 11.4046 40.1512 14.1425 39.5194 16.2173C39.247 16.9911 38.7731 17.5419 37.8767 17.6253C33.9387 17.9193 30.5215 18.1451 26.5626 18.0322C26.4856 18.0298 26.4089 18.0433 26.3372 18.0719C26.2655 18.1005 26.2005 18.1437 26.146 18.1986C24.4824 19.8912 23.6314 21.0683 22.3642 23.5274C22.3345 23.5841 22.2705 23.6177 22.1923 23.624C22.1392 23.6208 22.1178 23.5799 22.1142 23.5426L22.2861 18.3477C22.2965 18.0674 22.0668 17.7996 21.7902 17.7692C20.8684 17.6789 19.9491 17.5681 19.0257 17.4279C18.6288 17.3665 18.4824 17.2573 18.3736 17.0946C18.1845 16.6399 18.1892 16.359 18.1741 15.9217C18.0856 13.292 18.0423 10.9935 18.4428 8.70715C18.4798 8.36853 18.6053 8.02255 18.7387 7.7338C18.9595 7.38573 19.2981 7.3348 19.6371 7.23978C23.984 6.03018 28.2371 5.12455 32.2413 5.12193C34.2038 5.19385 36.2652 5.3923 37.8991 5.82333ZM22.884 10.279C22.285 11.003 22.3449 11.9842 22.8074 12.6426C23.0491 12.9864 23.4262 13.2636 23.8856 13.3261C24.4814 13.3755 24.8595 13.1324 25.2673 12.8531C26.0069 12.2047 26.0819 11.0749 25.5194 10.2585C25.233 9.84273 24.7757 9.59283 24.308 9.57603C23.6673 9.58233 23.2324 9.87003 22.884 10.279ZM29.3621 9.6889C28.7658 9.70833 28.2835 10.1247 27.9887 10.5741C27.6517 11.088 27.4548 11.7312 27.7277 12.3622C28.2522 13.575 30.0642 13.5603 30.7876 12.327C31.121 11.759 31.0356 11.1132 30.7876 10.6444C30.5402 10.1756 30.1668 9.7939 29.6231 9.70675C29.5368 9.69239 29.4495 9.68641 29.3621 9.6889ZM34.6215 9.80283C34.4341 9.79689 34.2469 9.81757 34.0652 9.86425C33.3481 10.0569 32.7382 10.803 32.8309 11.7574C32.8777 12.2373 33.0965 12.7056 33.4913 13.0279C33.8866 13.3508 34.46 13.4952 35.0647 13.3702C35.76 13.2264 36.1902 12.662 36.334 12.1165C36.4777 11.5716 36.4418 11.0161 36.108 10.5657C35.7387 10.0669 35.1798 9.81595 34.6215 9.80283ZM24.259 10.6969C24.3928 10.698 24.4986 10.741 24.6069 10.8985C24.8501 11.2524 24.7824 11.7879 24.5371 12.0026C24.2923 12.2173 24.1402 12.2367 24.033 12.222C23.9262 12.2073 23.8178 12.1328 23.7205 11.9942C23.5345 11.7301 23.4798 11.3022 23.7241 10.9967C23.8543 10.8229 24.0928 10.7142 24.259 10.6969ZM29.4402 10.8198C29.4611 10.8229 29.6939 10.9594 29.8053 11.1699C29.9168 11.381 29.9376 11.5768 29.8314 11.7574C29.5163 12.2945 28.846 12.1496 28.7449 11.9149C28.7064 11.8262 28.735 11.4676 28.9189 11.1878C29.1022 10.908 29.333 10.8024 29.4402 10.8198ZM35.2126 11.2314C35.2465 11.277 35.3293 11.5836 35.2647 11.8278C35.2007 12.0714 35.096 12.2215 34.8387 12.274C34.5095 12.3423 34.3257 12.274 34.1871 12.1606C34.0481 12.0472 33.9548 11.8561 33.935 11.6524C33.8856 11.1458 34.0663 11.0277 34.3517 10.951C34.6861 10.8686 35.0621 11.0124 35.2126 11.2314Z" fill="#FF52C1"/>
</svg>
